# xmcd
#
# Track frame offsets:
#	150
#	13011
#	18421
#	32420
#	39903
#	53645
#	72969
#	86809
#	104785
#	114725
#	119900
#	126822
#	137253
#	148327
#	162910
#	175112
#	186662
#	218936
#	232551
#
# Disc length: 3462 seconds
#
# Revision: 1
# Processed by: cddbd v1.5.1PL0 Copyright (c) Steve Scherf et al.
# Submitted via: audiograbber 1.83.01
#
DISCID=100d8413
DTITLE=Johnny Cash - At Folsom Prison
DYEAR=1999
DGENRE=Country
TTITLE0=Folsom Prison Blues
TTITLE1=Busted
TTITLE2=Dark As The Dungeon
TTITLE3=I Still Miss Someone
TTITLE4=Cocaine Blues
TTITLE5=25 Minutes To Go
TTITLE6=Orange Blossom Special
TTITLE7=The Long Black Veil
TTITLE8=Send A Picture Of Mother
TTITLE9=The Wall
TTITLE10=Dirty Old Egg Suckin' Dog
TTITLE11=Flushed From The Bathroom Of Your Heart
TTITLE12=Joe Bean
TTITLE13=Jackson (With June Carter)
TTITLE14=Give My Love To Rose (With June Carter)
TTITLE15=I Got Stripes
TTITLE16=The Legend Of John Henry's Hammer
TTITLE17=Green, Green Grass Of Home
TTITLE18=Greystone Chapel
EXTD=
EXTT0=
EXTT1=
EXTT2=
EXTT3=
EXTT4=
EXTT5=
EXTT6=
EXTT7=
EXTT8=
EXTT9=
EXTT10=
EXTT11=
EXTT12=
EXTT13=
EXTT14=
EXTT15=
EXTT16=
EXTT17=
EXTT18=
PLAYORDER=
